PathFileType	4	(X/Y/Z)	Patient4_TMGait_0pt4_01_right_41.trc.trc
DataRate	CameraRate	NumFrames	NumMarkers	Units	OrigDataRate	OrigDataStartFrame	OrigNumFrames
75.268817204301	75.268817204301	6	33	mm	75.268817204301	71	       141
Frame#	Time	Sacral			L.Shoulder			Chest			R.Shoulder			Neck			R.ASIS			L.ASIS			R.Thigh.Superior			R.Thigh.Lateral			R.Thigh.Inferior			R.Patella			L.Thigh.Superior			L.Thigh.Lateral			L.Thigh.Inferior			L.Patella			L.Shank.Superior			L.Shank.Lateral			L.Shank.Inferior			R.Shank.Superior			R.Shank.Lateral			R.Shank.Inferior			R.Heel			R.Midfoot.Superior			R.Midfoot.Lateral			R.Toe			L.Heel			L.Midfoot.Lateral			L.Midfoot.Superior			L.Toe			L.Elbow			L.Wrist			R.Elbow			R.Wrist			
		X1	Y1	Z1	X2	Y2	Z2	X3	Y3	Z3	X4	Y4	Z4	X5	Y5	Z5	X6	Y6	Z6	X7	Y7	Z7	X8	Y8	Z8	X9	Y9	Z9	X10	Y10	Z10	X11	Y11	Z11	X12	Y12	Z12	X13	Y13	Z13	X14	Y14	Z14	X15	Y15	Z15	X16	Y16	Z16	X17	Y17	Z17	X18	Y18	Z18	X19	Y19	Z19	X20	Y20	Z20	X21	Y21	Z21	X22	Y22	Z22	X23	Y23	Z23	X24	Y24	Z24	X25	Y25	Z25	X26	Y26	Z26	X27	Y27	Z27	X28	Y28	Z28	X29	Y29	Z29	X30	Y30	Z30	X31	Y31	Z31	X32	Y32	Z32	X33	Y33	Z33	

71	54.400000000000	858.429987554082	1003.985297655615	528.308085120739	1012.700202572598	1427.516903431988	321.876922230466	1138.525458877804	1360.929391817151	466.233601401776	1082.815251635320	1435.761421183439	650.480700135803	1018.893053713624	1489.522021823426	478.215348882909	1097.173282164901	935.241204351945	615.344602486900	1051.224863440765	955.865003362062	343.894563828377	1091.566596230653	722.454222989943	587.965225673747	991.942856088042	628.659090489398	657.786411841366	1046.154658956805	563.947636037597	573.564891954948	1027.929681190770	481.176495515213	579.443980818343	1123.230712554060	766.090181096526	370.732565912352	1065.108314551703	640.208255790206	294.298145086410	1168.622276452783	577.758442595574	350.761928845955	1191.276824961460	511.371874940016	346.521941334290	1170.320851213361	439.614860544286	335.328147951426	1093.964832240369	315.454795298108	284.927294293262	1176.259074677630	209.896505891738	335.120905245757	991.495239838801	396.554349652520	588.096857669001	913.079830512405	299.788293114974	653.391550812727	942.014762509203	202.315442427426	586.937788920821	794.482067304540	42.754138120702	558.148253459401	966.169288433623	96.066893117633	593.888158521550	877.733432678190	36.468601333587	633.019495628259	1085.999283099901	42.420535848158	621.111658537804	1081.296780435702	40.564784909039	374.307312198683	1152.687141669868	39.343316447415	291.939488388091	1231.314781507628	108.356040693824	312.304740784454	1360.691399008716	66.729228632683	281.248663131017	905.010205166171	1086.243604162579	229.607552792080	910.170741954136	829.348195794371	192.964428889823	1176.718429193737	1100.970627740442	764.776389919383	1414.151539219484	1052.315049204494	686.755575284516	
72	54.413285714286	859.547310641259	1002.748567888798	525.883165765374	1012.379111396679	1426.335588624005	318.651955788163	1138.477316691070	1360.400855298554	463.046865066193	1082.449444426431	1435.104620560667	647.292731976623	1018.615602552158	1488.609211444046	474.882100994682	1098.539331896737	934.459675082898	612.961680548511	1052.390180899064	954.663133090314	341.588161338161	1092.919109206426	721.404449459882	586.109684567254	992.718446788541	627.861875578391	655.855668030970	1046.698036507725	562.694022993999	571.891947309418	1027.814128545679	479.580951881171	577.660791486368	1124.573488251547	764.334955910423	368.206311502436	1064.361099520855	638.214360807612	293.798702882698	1168.527585925794	576.155445857316	349.423845243246	1189.986461589804	508.814197061974	345.926226187961	1168.271906588498	436.651836786120	335.079909768850	1089.730156640386	313.402045336799	285.552903020386	1170.348456360503	206.842160429786	336.186033607063	990.281616221580	395.364449698545	586.659102999847	910.886898329658	299.762636357768	652.609384469819	938.216463895190	201.736396298689	586.368609213070	789.190322107267	43.007438309311	558.307559124998	960.926608419568	96.026006508214	593.887736256507	872.462618649711	36.456701745092	633.115902053307	1080.743088080580	42.112614571000	621.180561370561	1072.343672176088	39.622767769465	375.977455678476	1143.299728407632	37.779278213535	293.144393924653	1223.343426579224	104.939889667741	313.973688268853	1352.061012307227	61.007351077702	281.914215551636	905.364010695553	1084.882684913672	226.494811198539	912.177463025426	827.988391104205	189.421387464462	1174.831848350022	1099.257116105661	760.588333544194	1411.654950173178	1050.793286638719	680.715242701545	
73	54.426571428571	860.709330745538	1001.635980433370	523.322210058011	1012.230500551768	1425.244706751670	315.281664260000	1138.532297109063	1359.983582291862	459.781185911422	1082.128641038994	1434.627884004217	643.984626051307	1018.443081375056	1487.836105891529	471.385835763800	1099.905184422409	933.782825690540	610.478069578006	1053.609790735850	953.705306113579	339.195382953262	1094.493962513661	720.475308337173	584.070986917636	993.818609383957	627.089007861898	653.705103790561	1047.673897760738	561.495339187954	570.031506121505	1028.196880413603	477.922616492509	575.705211371077	1126.080760234382	762.883224686357	365.637112968975	1064.070820856176	636.711260580738	292.995809852766	1168.706619350341	574.906249302117	348.013059455610	1188.904308403860	506.637884603847	345.228620451950	1166.574922833091	434.103074044461	334.620662576589	1086.167448690777	311.738314708111	285.590936666394	1164.988358807964	204.251993532436	336.927927716528	989.448040170060	394.168970366387	585.080615366929	908.959770143792	299.866024414482	651.708580201823	934.587845310126	201.235369845288	585.768541283900	783.926936844467	43.477752911536	558.509556955507	955.761948406009	96.022046354342	593.895566566590	867.236711543833	36.526543665121	633.225055982749	1075.526427009316	41.740114368086	621.267032188074	1064.028336215439	38.915882813637	377.078498586820	1134.733701660031	36.615388569241	293.944465582645	1215.936168190409	102.165814369247	315.386393044527	1344.147039514914	56.297846964586	282.642500800463	906.273152769012	1083.477134542040	223.173442589474	915.127543499961	826.591312903528	185.692547030691	1172.474564535097	1097.636789753386	756.463665389462	1408.580083426613	1048.433852767132	674.934275520621	
74	54.439857142857	861.895758063202	1000.713040769903	520.637324540848	1012.233095056987	1424.313741116148	311.810324294247	1138.690187265254	1359.712296314226	456.449788837513	1081.907108154562	1434.381072748416	640.575718844956	1018.378899564662	1487.252080362909	467.769006440946	1101.240099797102	933.256444576189	607.868133031955	1054.838393792700	953.050417093889	336.672074879375	1096.179205196714	719.716380491813	581.822787041313	995.160741971489	626.397733317157	651.349176012733	1049.000537661345	560.407987580341	567.992192115329	1029.038009592982	476.249342191952	573.641684426907	1127.723477278141	761.857630975111	363.042285101243	1064.295592414629	635.758860688536	291.852681650365	1169.164397456732	574.050218800259	346.504168999558	1188.071474875930	504.915023215295	344.390454273211	1165.272517008136	432.035262080777	333.936824310169	1083.348901707681	310.510885702370	285.025989613407	1160.264025891301	202.194112061117	337.332702898732	988.949900177229	393.024286376602	583.405834888860	907.251199513709	300.150396512072	650.700389813396	931.125050974584	200.870914435718	585.160830758372	778.699645337225	44.237842810686	558.752580072564	950.698060147451	96.067595098552	593.913106108581	862.062747192687	36.718764876641	633.343642576952	1070.348912992849	41.313237591762	621.367057562081	1056.526567645850	38.446550775926	377.676147701107	1127.127621342747	35.841330777689	294.376230811168	1209.204356645381	100.099255032448	316.478635208315	1337.059922725123	52.732101557358	283.328711234889	907.727501174978	1082.104511660547	219.664656693585	918.990226475747	825.244544569966	181.803652050461	1169.679847203905	1096.190538850186	752.449313922350	1404.929172462497	1045.234080052346	669.455658226794	
75	54.453142857143	863.089936266400	1000.026424407297	517.824231315411	1012.358853934495	1423.599928338670	308.279941989098	1138.941920586288	1359.614757108232	453.068144924776	1081.815118983428	1434.395415052323	637.087812095232	1018.412274293628	1486.892985992010	464.071941139723	1102.520077596724	932.919311958941	605.112165264099	1056.054728065655	952.724895259814	333.975517150465	1097.875079640108	719.171900512046	579.357960754323	996.674409897576	625.840286275270	648.816718945057	1050.617162371584	559.484936876635	565.797478487770	1030.320218859235	474.603947332261	571.555621336628	1129.470267479862	761.322044190959	360.430143163123	1065.029460365492	635.345239903018	290.363921880873	1169.861596871732	573.562010373704	344.872638626626	1187.482018876399	503.642869020724	343.391202087734	1164.337803283934	430.441664718076	333.045433880634	1081.223505444860	309.708038527265	283.915986292120	1156.138941006507	200.659747727349	337.429512159971	988.763186865467	391.979566627921	581.691029601840	905.727739049006	300.663735445070	649.603207012131	927.836731046483	200.697277780886	584.570458337092	773.520530698852	45.362758503260	559.029921520927	945.762551020471	96.173706441474	593.942101517419	856.947182141019	37.079298256015	633.466334548502	1065.209969153073	40.846150112705	621.474924679651	1049.851501394957	38.189161952233	377.870002272716	1120.451278106071	35.404307136799	294.504005812927	1203.128904991773	98.710843596241	317.234297188838	1330.764577767296	50.281723284967	283.896159630738	909.698957646181	1080.834606244111	215.988554252841	923.734166645853	824.029793245316	177.781123336791	1166.485953239380	1094.988123581102	748.592327534029	1400.698807518101	1041.200361414183	664.321085585310	
76	54.466428571429	864.278275291447	999.601050318618	514.862560966639	1012.578810698374	1423.142687337846	304.723441029161	1139.270556472231	1359.711925882930	449.653019455221	1081.850779072282	1434.680554905852	633.543577888397	1018.520451797251	1486.778750919764	460.327149782156	1103.728900480191	932.798550871995	602.201190077461	1057.263923173900	952.722431453571	331.076352618745	1099.512477803988	718.874558013036	576.691789265013	998.314691495478	625.455564287003	646.146780476685	1052.497305693393	558.769266486456	563.481952866280	1032.055333361360	473.018614972338	569.540025555048	1131.283430962875	761.263103333905	357.796545582643	1066.179657189879	635.387593839511	288.557241519654	1170.705054290528	573.355371363551	343.099564212697	1187.074558175401	502.754650425276	342.235640071605	1163.676374686444	429.257251083474	331.989310530271	1079.640550387177	309.266711797639	282.381486173742	1152.490355544516	199.580914194059	337.280728747840	988.892334701231	391.071370760424	579.995245287105	904.378776119006	301.446527575131	648.438763705725	924.746976275576	200.760020895792	584.019876234579	768.407515582444	46.926002811592	559.329447655279	940.987490070759	96.349263711991	593.983775874135	851.896447179407	37.657485813389	633.585609187055	1060.108357577865	40.356702675336	621.582941101673	1043.898500022397	38.099664589511	377.773908846628	1114.558421364802	35.227065727452	294.406652776824	1197.602586529526	97.901087329720	317.681109899628	1325.128418261287	48.797170762167	284.304761386075	912.139678827299	1079.723931332417	212.163718760343	929.324854043757	823.017286146815	173.651597208072	1162.936196841762	1094.082171738654	744.934823009228	1395.882356514411	1036.347788079983	659.572040560732	
